# xmcd CD database file
#
# Track frame offsets:
#	150
#	22045
#	42201
#	63497
#	84948
#	108594
#	140560
#	156710
#	180486
#	205467
#	230391
#	252534
#
# Disc length: 3698 seconds
#
# Revision: 21
# Processed by: cddbd v1.5PL3 Copyright (c) Steve Scherf et al.
# Submitted via: CDex 1.51
#
DISCID=ac0e700c
DTITLE=GLAY - REVIEW
DYEAR=1997
DGENRE=Rock
TTITLE0=GROLIUS
TTITLE1=Kanojono Modern
TTITLE2=BELOVED
TTITLE3=More than Love
TTITLE4=Senno knife ga munewosasu
TTITLE5=Zutto Futaride
TTITLE6=Kutibiru
TTITLE7=RHAPSODY
TTITLE8=HOWEVER
TTITLE9=Freeze My Love
TTITLE10=KISSIN' NOISE
TTITLE11=Kisekinohate
EXTD=YEAR: 1997
EXTT0=
EXTT1=
EXTT2=
EXTT3=
EXTT4=
EXTT5=
EXTT6=
EXTT7=
EXTT8=
EXTT9=
EXTT10=
EXTT11=
PLAYORDER=
